<?xml version="1.0" standalone="no"?>
<!DOCTYPE svg PUBLIC "-//W3C//DTD SVG 20010904//EN"
 "http://www.w3.org/TR/2001/REC-SVG-20010904/DTD/svg10.dtd">
<svg version="1.0" xmlns="http://www.w3.org/2000/svg"
 width="800.000000pt" height="628.000000pt" viewBox="0 0 800.000000 628.000000"
 preserveAspectRatio="xMidYMid meet">

<g transform="translate(0.000000,628.000000) scale(0.100000,-0.100000)"
fill="#000000" stroke="none">
<path d="M6270 5771 c-30 -3 -65 -12 -77 -19 -12 -7 -30 -12 -40 -12 -10 0
-40 -11 -68 -25 -27 -13 -56 -25 -62 -25 -7 0 -13 -4 -13 -8 0 -5 -15 -15 -32
-24 -60 -29 -183 -137 -247 -218 -34 -44 -66 -80 -71 -80 -24 0 -30 38 -32
201 l-3 174 -133 3 c-108 2 -133 0 -138 -12 -3 -8 -6 -914 -7 -2014 -2 -1678
-4 -2002 -16 -2015 -12 -16 -186 -17 -2315 -17 l-2302 0 2 -539 c1 -296 4
-543 8 -549 8 -14 6662 -17 6670 -4 6 10 14 1063 8 1081 -3 8 -233 11 -871 11
-828 0 -869 1 -884 18 -16 17 -17 113 -17 1181 0 1084 1 1162 17 1168 12 5 27
-5 53 -37 69 -84 150 -160 229 -214 45 -31 85 -56 89 -56 5 0 26 -8 48 -19 73
-35 135 -51 237 -62 116 -12 274 -5 344 16 27 8 48 14 48 14 0 -5 97 26 101
32 3 5 12 9 21 9 18 0 118 61 175 108 22 17 43 32 47 32 14 0 98 88 152 160
107 142 180 325 200 495 23 199 17 327 -22 490 -30 122 -102 288 -144 335 -8
9 -15 22 -15 29 0 18 -205 221 -224 221 -9 0 -16 4 -16 10 0 5 -19 19 -42 31
-24 12 -50 27 -58 34 -16 12 -78 37 -190 75 -52 17 -94 22 -210 25 -80 2 -170
0 -200 -4z m328 -287 c59 -20 114 -43 123 -50 8 -8 21 -14 28 -14 6 0 14 -7
17 -15 4 -8 14 -15 24 -15 18 0 160 -148 186 -192 55 -98 96 -201 116 -298 17
-82 17 -306 0 -385 -23 -103 -88 -261 -118 -286 -8 -6 -14 -17 -14 -24 0 -34
-220 -225 -259 -225 -7 0 -28 -9 -46 -20 -78 -48 -324 -67 -448 -35 -66 17
-184 71 -243 109 -186 124 -316 346 -334 568 -5 60 -12 112 -15 118 -6 10 8
107 30 208 29 128 102 265 192 357 61 62 146 135 158 135 7 0 23 8 36 18 13
10 51 26 84 36 33 10 71 22 85 27 46 15 64 17 178 18 106 1 121 -1 220 -35z
m-5253 -4168 c12 -28 26 -65 30 -83 3 -18 15 -43 26 -57 11 -14 19 -28 18 -33
-1 -4 3 -21 9 -36 7 -16 12 -33 12 -39 0 -18 33 -88 41 -88 12 0 18 13 50 107
32 95 36 105 66 173 11 25 24 60 27 78 8 32 8 32 67 32 l60 0 20 -47 c12 -27
27 -61 34 -78 7 -16 16 -46 20 -65 4 -19 11 -39 15 -45 5 -5 26 -56 49 -113
45 -113 44 -136 -6 -148 -38 -10 -76 17 -88 63 -16 61 -19 63 -101 63 -62 0
-76 -3 -80 -17 -3 -10 -14 -37 -25 -60 -20 -46 -22 -47 -129 -43 -69 2 -79 8
-91 53 -17 58 -32 67 -106 65 -69 -2 -75 -5 -93 -61 -7 -23 -22 -43 -39 -51
-30 -16 -80 -10 -88 11 -5 13 31 140 49 173 4 8 32 78 62 155 50 129 56 140
82 145 62 12 84 1 109 -54z m1097 46 c11 -11 12 -457 2 -474 -8 -12 -79 -9
-92 4 -8 8 -12 47 -12 111 0 85 -2 98 -14 88 -8 -7 -19 -31 -25 -54 -33 -134
-63 -177 -115 -161 -29 9 -56 34 -56 52 0 28 -62 172 -72 166 -5 -3 -9 -45 -8
-93 1 -47 2 -92 1 -99 -2 -20 -47 -33 -76 -22 l-25 10 2 237 3 238 66 3 66 3
22 -63 c13 -35 31 -83 41 -108 11 -25 25 -64 31 -88 8 -26 16 -39 22 -33 5 5
26 58 47 117 57 166 60 173 78 177 30 7 103 0 114 -11z m520 -52 c11 -30 23
-72 27 -92 5 -21 13 -44 19 -51 7 -7 25 -51 41 -96 34 -94 37 -99 53 -83 14
14 49 108 55 149 3 18 11 38 19 44 8 6 14 21 14 33 0 12 8 37 18 56 11 19 22
48 26 63 8 33 31 43 89 39 43 -4 44 -4 64 -60 46 -125 75 -199 93 -238 11 -22
20 -48 20 -57 0 -9 4 -18 9 -21 4 -3 14 -26 21 -51 7 -25 15 -43 18 -41 2 3 4
103 3 222 -1 152 2 220 10 230 9 11 42 14 143 14 l131 0 58 -37 c39 -26 57
-44 57 -58 0 -12 5 -26 12 -33 17 -17 22 -168 8 -222 -8 -31 -26 -58 -55 -87
-37 -35 -52 -42 -97 -47 -96 -11 -257 -13 -266 -4 -6 6 -24 6 -47 -1 -52 -14
-80 0 -95 46 -21 66 -34 74 -113 71 l-71 -3 -17 -49 c-21 -61 -45 -76 -119
-69 -94 8 -96 9 -110 58 -16 56 -31 65 -109 65 -70 0 -86 -12 -96 -69 -5 -31
-12 -42 -34 -49 -34 -12 -76 -5 -93 15 -9 12 -8 21 5 46 9 18 28 63 42 101 14
38 29 74 34 80 4 6 11 24 15 41 4 16 16 49 27 72 11 24 22 55 25 71 12 57 33
70 102 62 44 -5 45 -6 64 -60z m1181 61 c19 -7 30 -29 57 -108 60 -179 65
-192 74 -195 8 -3 72 171 83 227 12 62 29 75 99 75 51 0 65 -3 71 -17 4 -10 7
-118 5 -240 -3 -209 -4 -224 -22 -233 -12 -7 -32 -7 -52 -2 l-33 8 -3 107 c-3
107 -13 133 -32 80 -6 -16 -14 -37 -19 -48 -5 -11 -14 -40 -21 -64 -13 -50
-49 -91 -80 -91 -33 0 -57 33 -86 124 -16 48 -33 85 -39 83 -5 -2 -13 -43 -17
-92 -3 -48 -10 -91 -15 -96 -5 -5 -27 -10 -49 -12 l-39 -2 -5 235 c-3 129 -3
240 -2 247 2 7 22 14 45 16 23 2 45 4 49 5 4 1 17 -2 31 -7z m553 -12 c8 -7
11 -76 9 -235 -3 -206 -5 -227 -21 -239 -26 -19 -48 -18 -72 3 -19 16 -20 32
-25 236 -4 206 -3 220 15 238 15 15 27 18 51 12 18 -3 37 -10 43 -15z m569 -5
c65 -43 69 -50 73 -117 3 -42 -1 -77 -9 -97 -25 -55 -108 -94 -197 -90 -64 2
-73 -6 -67 -58 3 -26 2 -60 -3 -76 -10 -37 -53 -54 -88 -35 l-24 12 0 226 c0
124 4 231 8 238 16 25 270 23 307 -3z m746 16 l126 0 29 -30 c16 -16 31 -30
34 -30 3 0 11 14 18 30 l14 30 238 0 239 0 23 -32 c34 -49 47 -70 63 -105 24
-52 45 -40 80 47 8 21 29 55 44 74 29 35 121 28 121 -10 0 -19 -38 -89 -65
-119 -11 -12 -40 -60 -63 -107 -43 -83 -44 -85 -37 -156 7 -70 7 -71 -19 -83
-22 -10 -33 -10 -60 4 l-34 16 1 90 c1 78 -1 93 -20 113 -11 13 -28 37 -37 55
-9 18 -30 53 -47 78 -24 35 -35 44 -48 39 -9 -4 -36 -8 -61 -9 -25 0 -51 -4
-57 -8 -10 -6 -13 -54 -13 -182 l0 -174 -27 -14 c-35 -18 -93 -5 -94 21 0 9
-1 90 -2 179 -1 89 -6 165 -10 170 -5 4 -25 8 -45 9 -21 0 -49 4 -64 8 l-28 8
0 -52 c0 -31 -7 -64 -17 -81 -16 -26 -16 -32 -3 -52 8 -12 15 -44 16 -72 1
-27 5 -68 9 -90 6 -37 5 -42 -18 -54 -54 -29 -107 19 -107 97 0 72 -7 80 -66
88 -29 3 -64 4 -77 0 -23 -5 -24 -8 -19 -80 4 -65 2 -76 -17 -95 -25 -25 -53
-27 -85 -6 -23 15 -56 11 -56 -6 0 -15 -49 -10 -75 7 -13 9 -29 32 -36 52 -16
52 -34 62 -105 62 -68 0 -84 -13 -98 -76 -9 -40 -46 -61 -83 -48 -48 17 -50
36 -15 116 18 40 34 83 36 95 3 11 9 29 14 39 25 50 52 116 52 128 0 8 11 37
26 65 25 51 25 51 74 51 58 0 75 -14 90 -73 6 -23 26 -77 45 -120 19 -43 35
-84 35 -89 0 -19 62 -169 68 -164 3 3 6 99 7 213 1 115 3 213 3 220 2 14 30
23 57 17 11 -2 77 -4 146 -4z"/>
<path d="M1251 1187 c-5 -14 -13 -41 -16 -61 -7 -35 -6 -36 24 -36 40 0 48 19
31 71 -17 50 -27 57 -39 26z"/>
<path d="M1672 1155 c-16 -60 -15 -65 7 -65 28 0 51 11 51 24 0 29 -22 86 -33
86 -7 0 -18 -20 -25 -45z"/>
<path d="M3675 1258 c-3 -8 -4 -72 -3 -144 l3 -129 69 1 c59 1 72 4 88 23 10
13 18 34 18 47 0 12 4 25 8 28 4 2 5 32 2 65 -8 85 -36 113 -119 119 -46 3
-62 1 -66 -10z"/>
<path d="M2856 1183 c-20 -72 -18 -80 13 -85 45 -7 50 2 34 55 -14 48 -37 63
-47 30z"/>
<path d="M3290 1173 c-6 -16 -15 -36 -20 -46 -6 -10 -8 -22 -6 -26 8 -13 86
-10 86 3 0 15 -39 96 -45 96 -3 0 -10 -12 -15 -27z"/>
<path d="M5110 1270 l-45 -5 -3 -49 c-2 -32 1 -52 10 -57 20 -13 75 -10 114 6
32 13 35 17 32 52 -2 30 -8 39 -33 48 -16 6 -50 8 -75 5z"/>
<path d="M5928 1263 c-12 -11 -13 -23 -5 -59 l10 -44 68 0 c59 0 70 3 83 22
20 29 20 41 -1 66 -24 26 -133 37 -155 15z"/>
<path d="M5542 1172 c-20 -66 -16 -82 17 -82 17 0 32 4 35 8 7 12 -10 73 -27
96 -12 16 -14 15 -25 -22z"/>
<path d="M1367 5750 c-96 -16 -144 -28 -242 -62 -83 -28 -111 -39 -127 -48
-10 -6 -25 -10 -33 -10 -23 0 -65 -30 -65 -46 0 -8 14 -44 30 -81 17 -36 30
-73 30 -83 0 -9 8 -24 18 -33 16 -14 22 -13 72 8 30 13 67 24 83 25 15 0 27 4
27 10 0 5 19 14 43 20 23 6 62 17 87 25 67 20 160 29 310 28 181 0 297 -26
395 -90 56 -37 144 -131 161 -173 8 -19 19 -44 23 -55 25 -58 43 -160 39 -225
-5 -89 -13 -97 -75 -77 -26 8 -73 20 -103 26 -30 7 -73 16 -95 21 -22 5 -115
14 -207 19 -256 16 -482 -12 -615 -75 -29 -13 -65 -29 -80 -35 -115 -43 -212
-146 -288 -305 l-38 -79 -1 -145 c-1 -128 2 -153 23 -215 32 -94 80 -172 138
-224 88 -78 98 -86 128 -106 97 -63 311 -115 474 -115 178 1 384 54 473 122
20 15 41 28 47 28 5 0 29 18 52 40 24 22 48 40 55 40 6 0 20 12 30 28 27 41
42 54 62 50 15 -3 18 -20 22 -133 l5 -130 140 0 140 0 3 625 c2 369 -1 672 -7
740 -11 123 -38 215 -101 345 -39 83 -148 195 -232 239 -29 15 -60 31 -68 35
-35 20 -131 50 -217 70 -119 27 -355 27 -516 1z m567 -1045 c55 -9 103 -18
106 -20 4 -2 39 -11 80 -19 105 -22 110 -29 110 -145 0 -90 -18 -207 -40 -266
-27 -72 -125 -192 -195 -241 -46 -32 -188 -101 -221 -107 -16 -3 -47 -10 -69
-16 -65 -17 -292 -14 -350 5 -79 26 -149 58 -158 71 -4 7 -14 13 -22 13 -21 0
-113 109 -141 167 -61 130 -32 308 66 412 22 23 42 41 45 41 3 0 22 11 43 24
53 35 187 81 292 100 52 10 359 -3 454 -19z"/>
<path d="M3670 5763 c-88 -11 -295 -62 -357 -89 -17 -8 -35 -14 -39 -14 -5 0
-39 -12 -76 -26 -62 -23 -68 -28 -68 -54 0 -16 4 -32 10 -35 5 -3 19 -38 31
-78 24 -81 41 -102 71 -86 61 32 171 68 293 93 44 10 99 21 123 27 106 23 379
2 451 -35 16 -9 35 -16 42 -16 6 0 28 -13 49 -30 21 -16 42 -30 48 -30 21 0
112 -107 140 -165 30 -61 62 -207 62 -281 0 -22 -6 -49 -14 -59 -11 -16 -17
-17 -42 -7 -31 13 -187 44 -299 61 -202 29 -469 19 -630 -24 -52 -14 -103 -29
-113 -34 -9 -5 -47 -23 -83 -39 -71 -32 -90 -45 -155 -107 -63 -60 -110 -133
-140 -221 -25 -73 -27 -90 -26 -230 1 -147 2 -152 35 -231 53 -126 162 -249
250 -282 15 -6 27 -15 27 -20 0 -5 12 -12 28 -15 15 -4 41 -13 57 -21 159 -74
477 -84 663 -21 143 49 280 137 372 239 25 27 40 37 52 32 15 -6 18 -25 20
-138 l3 -132 140 0 140 0 0 660 c0 710 -5 788 -51 924 -30 88 -44 117 -92 185
-78 108 -200 199 -317 236 -22 7 -44 16 -50 20 -5 4 -26 10 -45 13 -19 4 -66
13 -105 22 -66 14 -308 19 -405 8z m450 -1051 c25 -6 72 -16 105 -22 252 -46
235 -34 235 -166 0 -151 -28 -262 -90 -355 -48 -72 -124 -143 -189 -176 -20
-10 -44 -24 -54 -32 -10 -8 -35 -21 -55 -28 -102 -38 -144 -45 -293 -50 -131
-4 -160 -3 -187 11 -17 9 -41 16 -53 16 -27 0 -142 68 -184 109 -47 45 -57 61
-92 130 -28 54 -33 76 -33 132 0 94 17 169 46 200 13 14 24 28 24 32 0 8 36
52 70 85 27 25 118 72 141 72 8 0 19 4 25 10 5 5 32 15 59 20 28 6 66 15 85
20 46 12 383 5 440 -8z"/>
<path d="M4465 3179 c-55 -4 -167 -12 -250 -19 -82 -6 -216 -13 -297 -15 -132
-2 -151 -5 -185 -25 -37 -22 -69 -28 -183 -34 -30 -2 -89 -9 -130 -15 -41 -7
-131 -14 -200 -16 -81 -2 -139 -9 -165 -19 -22 -8 -62 -15 -90 -16 -27 0 -79
-7 -114 -15 -57 -14 -66 -14 -88 0 -18 12 -28 13 -44 4 -44 -23 -77 -28 -96
-13 -22 16 -81 18 -120 3 -15 -6 -64 -12 -108 -14 -102 -4 -159 -22 -163 -53
-2 -12 -11 -23 -20 -23 -26 -2 -35 -4 -65 -17 -16 -7 -44 -12 -63 -12 -46 0
-96 -26 -92 -48 4 -19 62 -21 134 -5 23 6 48 6 56 2 8 -4 34 -1 59 7 24 9 58
14 74 11 17 -3 41 1 55 8 34 18 84 1 70 -25 -14 -27 -13 -30 14 -30 14 0 28
-4 31 -10 4 -6 -13 -10 -43 -10 -32 0 -54 -5 -62 -15 -7 -8 -25 -15 -41 -15
-16 0 -29 -4 -29 -9 0 -4 43 -6 95 -3 81 4 95 2 101 -12 4 -10 18 -16 35 -16
22 0 29 5 29 20 0 11 -3 20 -7 20 -5 1 -19 10 -32 20 -32 27 -13 50 42 50 24
0 48 7 59 17 17 15 18 15 18 -3 0 -10 -7 -27 -14 -37 -11 -14 -11 -25 -3 -47
11 -29 43 -42 97 -40 86 3 109 6 124 19 14 12 21 12 42 1 19 -11 34 -11 65 -3
30 8 43 7 52 -1 7 -7 27 -21 45 -31 17 -11 32 -25 32 -31 0 -15 -56 -24 -148
-24 -72 0 -73 0 -83 -30 -16 -44 -79 -39 -79 6 0 20 -5 24 -33 24 -20 0 -39
-8 -50 -20 -9 -11 -31 -23 -47 -26 -32 -7 -31 -24 1 -24 11 0 27 -7 35 -15 9
-8 34 -15 57 -16 23 0 83 -5 132 -10 50 -5 116 -11 147 -12 31 -2 60 -6 64
-10 4 -4 -8 -21 -27 -37 -39 -33 -101 -40 -135 -15 -11 8 -41 15 -70 15 -27 0
-55 5 -62 12 -14 14 -114 30 -181 28 -24 0 -70 9 -103 21 -49 17 -72 20 -127
14 -47 -5 -83 -2 -122 8 -73 20 -169 30 -169 17 0 -5 9 -10 20 -10 10 0 29 -4
42 -9 45 -18 165 -41 273 -51 60 -6 114 -15 120 -19 20 -15 93 -31 139 -31 28
0 64 -9 89 -21 23 -12 62 -25 87 -30 25 -5 65 -14 90 -20 25 -6 61 -13 80 -15
19 -3 49 -11 65 -19 51 -22 133 -37 172 -31 41 7 52 2 69 -29 9 -16 25 -21 75
-26 35 -3 76 -11 91 -19 20 -9 34 -10 49 -4 15 7 41 5 83 -4 34 -8 81 -14 106
-14 35 1 50 -4 71 -24 l26 -24 18 20 c22 24 33 25 56 4 10 -9 39 -18 64 -20
26 -2 52 -7 58 -11 7 -4 32 -9 57 -10 75 -3 124 -10 153 -22 16 -6 46 -11 68
-11 26 0 42 -5 45 -15 4 -8 14 -15 25 -15 10 0 29 -5 43 -11 14 -7 32 -9 41
-6 13 6 13 9 -5 27 -26 26 -21 46 11 42 13 -2 38 -4 54 -6 17 -1 40 -6 52 -10
13 -4 28 -4 34 0 17 10 -27 32 -81 39 -56 8 -100 26 -100 41 0 19 35 44 62 44
14 0 43 -6 64 -14 59 -20 110 -14 135 18 32 41 21 50 -62 53 -77 2 -237 26
-301 45 -28 8 -45 8 -67 -2 -30 -12 -46 -11 -146 9 -27 5 -77 10 -111 10 -36
1 -68 7 -80 16 -11 8 -31 12 -49 9 -46 -7 -61 7 -46 44 14 33 41 43 101 35 28
-4 41 -12 49 -30 8 -18 16 -23 29 -18 40 17 104 23 207 19 308 -11 317 -12
347 -34 27 -20 115 -43 130 -34 16 10 7 26 -12 21 -27 -7 -65 25 -57 46 4 10
18 17 34 18 24 1 23 2 -9 8 -20 4 -43 12 -50 18 -8 6 -85 12 -185 15 -118 2
-176 7 -185 16 -6 6 -22 12 -35 12 -13 0 -23 5 -23 11 0 7 10 9 25 5 14 -4 35
-1 47 5 19 10 242 24 331 21 68 -3 101 -3 185 -3 74 1 82 3 82 20 0 15 -8 21
-32 23 -45 4 -53 38 -10 38 16 0 35 -7 42 -15 16 -20 36 -19 44 1 9 23 9 24
-26 38 -24 10 -82 13 -211 11 -210 -4 -292 -12 -308 -31 -17 -21 -49 -18 -49
5 0 11 -12 23 -30 31 -36 15 -38 25 -7 42 16 10 89 13 290 13 258 -1 267 0
267 18 0 18 -5 19 -74 14 -100 -7 -158 22 -102 52 20 11 36 11 91 0 48 -9 74
-10 94 -3 16 7 37 7 50 2 33 -12 68 0 75 27 3 12 15 25 27 28 15 4 20 12 17
29 -3 22 -7 23 -68 21 -81 -3 -128 -9 -160 -21 -33 -12 -150 2 -161 19 -10 18
-4 22 51 39 25 8 56 24 69 37 27 26 61 30 61 8 0 -25 26 -28 73 -10 25 9 53
16 63 15 35 -4 43 0 59 29 32 63 -8 80 -127 54 -44 -9 -82 -23 -85 -30 -3 -7
-16 -13 -29 -13 -36 0 -33 38 4 42 24 3 27 7 25 37 -1 18 -6 37 -13 41 -14 9
-154 9 -285 -1z m-375 -249 c0 -5 -7 -10 -15 -10 -8 0 -15 5 -15 10 0 6 7 10
15 10 8 0 15 -4 15 -10z m406 -1 c8 -14 -14 -29 -43 -29 -16 0 -23 6 -23 20 0
15 7 20 29 20 17 0 33 -5 37 -11z m-262 -15 c28 -11 -2 -34 -45 -34 -45 0 -60
16 -27 29 28 12 51 13 72 5z m-1739 -64 c-3 -5 -10 -10 -16 -10 -5 0 -9 5 -9
10 0 6 7 10 16 10 8 0 12 -4 9 -10z m556 -7 c36 -21 34 -44 -4 -57 -44 -16
-79 17 -63 60 7 19 32 18 67 -3z m339 -18 c0 -22 -48 -38 -95 -31 -22 3 -55 0
-72 -6 -25 -9 -36 -9 -45 0 -16 16 -7 23 54 38 78 18 158 18 158 -1z m1108 -1
c34 -10 26 -21 -20 -27 -44 -6 -65 3 -54 22 8 12 39 14 74 5z m-141 -10 c-3
-3 -12 -4 -19 -1 -8 3 -5 6 6 6 11 1 17 -2 13 -5z m-1624 -28 c7 -17 -28 -51
-42 -41 -12 7 -15 38 -4 48 11 12 41 7 46 -7z m1022 -17 c166 -12 195 -19 195
-48 0 -18 6 -20 68 -18 79 2 116 -15 85 -39 -20 -15 -160 -19 -182 -5 -7 5
-25 4 -40 -2 -30 -11 -101 1 -104 18 -1 6 12 11 28 13 54 5 60 10 40 32 -15
16 -31 20 -90 20 -39 0 -94 -7 -121 -15 -60 -18 -246 -20 -274 -3 -15 9 -24 9
-43 -1 -30 -16 -61 -11 -65 10 -3 19 42 31 86 24 15 -3 45 1 67 9 49 18 151
20 350 5z m402 -21 c-3 -8 -6 -5 -6 6 -1 11 2 17 5 13 3 -3 4 -12 1 -19z
m-1007 -15 c7 -6 -30 -33 -46 -33 -18 0 -27 18 -20 37 5 11 13 13 34 8 15 -4
29 -9 32 -12z m675 -188 c0 -15 -8 -21 -34 -23 -19 -2 -46 -1 -60 3 l-26 7 24
19 c33 27 96 23 96 -6z m283 1 c14 -15 -23 -23 -94 -20 -77 3 -105 11 -85 23
14 9 169 6 179 -3z m-446 -8 c-9 -9 -15 -9 -24 0 -9 9 -7 12 12 12 19 0 21 -3
12 -12z m-419 -48 c48 0 87 -9 87 -20 0 -10 -48 -30 -74 -30 -13 0 -29 7 -36
15 -23 27 -55 14 -58 -22 -3 -28 -7 -33 -28 -33 -31 0 -40 22 -24 60 16 38 37
51 68 39 13 -5 42 -9 65 -9z m472 -19 c3 -5 1 -12 -5 -16 -5 -3 -10 1 -10 9 0
18 6 21 15 7z m-105 -26 c3 -6 -10 -11 -29 -13 -28 -3 -31 -1 -20 10 14 16 41
17 49 3z m366 -164 c5 -6 33 -11 61 -12 65 -3 80 -11 57 -30 -27 -22 -160 -13
-196 14 l-30 22 24 6 c35 10 73 10 84 0z m257 -33 c8 -23 -13 -48 -39 -48 -26
0 -40 20 -30 45 7 18 62 20 69 3z m142 -89 c7 -29 -4 -42 -29 -33 -19 7 -22
60 -3 67 16 6 24 -3 32 -34z"/>
<path d="M853 3071 c-40 -3 -78 -12 -84 -18 -7 -7 -13 -38 -15 -70 -1 -32 -5
-84 -8 -116 -9 -74 13 -157 49 -185 14 -11 25 -25 25 -31 0 -14 42 -14 90 0
33 10 39 16 44 50 6 39 6 39 54 39 99 0 352 37 352 52 0 6 -12 8 -27 5 -15 -3
-37 0 -48 6 -11 6 -44 9 -72 8 -41 -2 -53 1 -53 12 0 20 75 33 94 18 11 -9 15
-9 18 0 2 7 24 14 49 15 60 3 59 3 59 15 0 6 14 22 30 36 17 13 30 30 30 37 0
18 -88 46 -145 46 -27 1 -61 7 -75 15 -14 8 -38 14 -53 15 -15 0 -41 7 -58 15
-61 32 -153 45 -256 36z m276 -175 c10 -12 8 -17 -8 -25 -22 -12 -51 -5 -51
13 0 28 39 36 59 12z m91 -1 c0 -8 -9 -15 -20 -15 -11 0 -20 7 -20 15 0 8 9
15 20 15 11 0 20 -7 20 -15z m-257 -99 c8 -19 -1 -26 -34 -26 -34 0 -46 15
-22 29 25 15 50 13 56 -3z"/>
<path d="M2150 2960 c-11 -7 -7 -10 18 -10 20 0 31 4 27 10 -8 13 -26 13 -45
0z"/>
<path d="M1521 2941 c-6 -11 -11 -37 -11 -59 0 -26 -6 -45 -20 -57 -11 -10
-20 -24 -20 -32 0 -19 27 -28 44 -14 17 14 70 24 116 22 19 -1 68 -3 109 -4
52 -1 76 -6 79 -16 6 -19 -19 -31 -40 -20 -34 18 -50 7 -53 -36 -1 -22 1 -45
6 -51 12 -15 108 -6 138 13 16 10 33 13 55 8 17 -4 77 -9 133 -12 82 -3 107
-1 125 11 12 9 28 16 35 16 7 0 25 8 41 18 29 17 26 17 -119 17 -82 0 -149 2
-149 5 0 3 -12 13 -25 23 -23 16 -25 16 -44 0 -15 -13 -17 -19 -8 -25 7 -5 2
-8 -14 -8 -17 0 -30 8 -38 24 -18 33 -5 49 32 43 28 -4 57 10 57 28 0 21 -49
44 -95 46 l-50 2 45 7 c62 11 133 35 137 47 2 6 -71 10 -204 10 -114 0 -218 3
-230 7 -16 5 -24 2 -32 -13z m113 -76 c-25 -19 -44 -19 -44 0 0 10 10 15 32
15 30 0 31 -1 12 -15z"/>
<path d="M1546 2681 c-18 -7 -18 -8 -2 -14 22 -9 68 2 60 14 -6 11 -31 11 -58
0z"/>
<path d="M1815 2640 c3 -5 8 -10 11 -10 2 0 4 5 4 10 0 6 -5 10 -11 10 -5 0
-7 -4 -4 -10z"/>
<path d="M2373 2603 c9 -2 25 -2 35 0 9 3 1 5 -18 5 -19 0 -27 -2 -17 -5z"/>
<path d="M2465 2600 c3 -5 10 -10 16 -10 5 0 9 5 9 10 0 6 -7 10 -16 10 -8 0
-12 -4 -9 -10z"/>
<path d="M4733 2459 c14 -8 22 -8 30 0 8 8 3 11 -18 11 -26 -1 -28 -2 -12 -11z"/>
<path d="M4620 2030 c0 -5 5 -10 10 -10 6 0 10 5 10 10 0 6 -4 10 -10 10 -5 0
-10 -4 -10 -10z"/>
</g>
</svg>
